<?xml version="1.0" encoding="UTF-8"?>
<svg width="359px" height="120px" viewBox="0 0 359 120" version="1.1" xmlns="http://www.w3.org/2000/svg" xmlns:xlink="http://www.w3.org/1999/xlink">
    <!-- Generator: Sketch 52.5 (67469) - http://www.bohemiancoding.com/sketch -->
    <title>Group 29</title>
    <desc>Created with Sketch.</desc>
    <defs>
        <polygon id="path-1" points="0.0954775281 0.2150775 24.7760955 0.2150775 24.7760955 32.175 0.0954775281 32.175"></polygon>
        <polygon id="path-3" points="0.154431193 0.215641379 29.7979817 0.215641379 29.7979817 31.9292966 0.154431193 31.9292966"></polygon>
        <polygon id="path-5" points="0 119 359 119 359 0 0 0"></polygon>
    </defs>
    <g id="Welcome" stroke="none" stroke-width="1" fill="none" fill-rule="evenodd">
        <g id="Desktop-HD" transform="translate(-541.000000, -2847.000000)">
            <g id="Group-29" transform="translate(541.000000, 2847.000000)">
                <path d="M164.227174,92.0251039 L168.385472,92.0251039 C170.773098,92.0251039 173.619301,92.9283589 173.619301,97.2303022 C173.619301,101.846227 170.340204,102.535429 168.385472,102.535429 L164.227174,102.535429 L164.227174,92.0251039 Z M169.409637,87 L158,87 L158,119 L164.227174,119 L164.227174,107.310851 L169.358558,107.310851 C175.723562,107.310851 180,103.259703 180,97.2303022 C180,94.2218646 179.011791,91.663802 177.141812,89.8330753 C175.248719,87.9795237 172.574875,87 169.409637,87 Z" id="Fill-1" fill="#0098A0"></path>
                <polygon id="Fill-3" fill="#0098A0" points="206.880076 99.8880152 193.120204 99.8880152 193.120204 87 187 87 187 119 193.120204 119 193.120204 104.913119 206.880076 104.913119 206.880076 119 213 119 213 87 206.880076 87"></polygon>
                <path d="M233.963651,93.3948783 C234.387865,94.8528905 234.995915,96.6761017 235.510654,98.2187331 L238.316931,106.63167 L229.449933,106.63167 L232.396314,98.2187331 C232.911053,96.6749883 233.51966,94.8506637 233.963651,93.3948783 Z M230.872986,87 L219,119 L225.244278,119 L227.743884,111.756981 L239.958637,111.756981 L242.358247,119 L249,119 L237.486885,87 L230.872986,87 Z" id="Fill-5" fill="#0098A0"></path>
                <g id="Group-9" transform="translate(256.000000, 87.000000)">
                    <mask id="mask-2" fill="white">
                        <use xlink:href="#path-1"></use>
                    </mask>
                    <g id="Clip-8"></g>
                    <path d="M6.22525281,5.1304275 L10.4696348,5.1304275 C13.8687921,5.1304275 15.5210393,6.6027775 15.5210393,9.6313525 C15.5210393,12.5337025 13.7269382,14.1322775 10.4696348,14.1322775 L6.22525281,14.1322775 L6.22525281,5.1304275 Z M23.2738483,27.2104525 C22.4370506,27.2104525 21.7165449,26.9668025 20.9196348,25.7730275 L15.4050281,17.7683275 C20.0704775,16.2173275 21.7513764,12.5152775 21.7513764,9.4834025 C21.7513764,3.7664275 17.8342416,0.2150775 11.5283427,0.2150775 L0.0954775281,0.2150775 L0.0954775281,31.8296275 L6.22525281,31.8296275 L6.22525281,18.6527275 L9.22132022,18.6527275 L15.6923876,28.3734275 C17.4657022,31.0736525 19.413736,32.1750275 22.4171067,32.1750275 C23.005309,32.1750275 23.6645787,32.0906025 24.4319944,31.9170775 L24.7760955,31.8395275 L24.7760955,27.0451775 L24.2696348,27.1158525 C23.9227247,27.1645275 23.5951966,27.2104525 23.2738483,27.2104525 Z" id="Fill-7" fill="#0098A0" mask="url(#mask-2)"></path>
                </g>
                <path d="M311.511581,87 L306.12285,106.962074 C305.7774,108.30791 305.362583,110.122771 305.00794,111.81627 C304.670848,110.056801 304.237365,108.209374 303.87325,106.854074 L298.384784,87 L291.164057,87 L287,119 L292.589872,119 L294.936141,99.837355 C295.095215,98.6702215 295.213615,97.2528488 295.303321,95.9838381 C295.550707,97.0607853 295.839324,98.230424 296.125713,99.2450201 L301.564311,119 L308.082996,119 L313.572576,99.3452271 C313.865094,98.2816409 314.129752,97.0933526 314.35513,95.9827247 C314.459879,97.1481881 314.578558,98.3890851 314.711445,99.5328369 L317.159677,119 L323,119 L318.733143,87 L311.511581,87 Z" id="Fill-10" fill="#0098A0"></path>
                <g id="Group-14" transform="translate(329.000000, 87.000000)">
                    <mask id="mask-4" fill="white">
                        <use xlink:href="#path-3"></use>
                    </mask>
                    <g id="Clip-13"></g>
                    <path d="M14.9403028,6.55329655 C15.3594771,7.99826207 15.960578,9.80515862 16.4689266,11.3339862 L19.2418624,19.6716414 L10.480211,19.6716414 L13.3915872,11.3339862 C13.9004862,9.80405517 14.5015872,7.99605517 14.9403028,6.55329655 Z M18.4216789,0.215641379 L11.8863578,0.215641379 L0.154431193,31.9292966 L6.32479817,31.9292966 L8.79443119,24.7510897 L20.8643394,24.7510897 L23.2354404,31.9292966 L29.7980092,31.9292966 L18.4216789,0.215641379 Z" id="Fill-12" fill="#0098A0" mask="url(#mask-4)"></path>
                </g>
                <mask id="mask-6" fill="white">
                    <use xlink:href="#path-5"></use>
                </mask>
                <g id="Clip-16"></g>
                <polygon id="Fill-15" fill="#908477" mask="url(#mask-6)" points="-1 119 6 119 6 87 -1 87"></polygon>
                <polygon id="Fill-17" fill="#908477" mask="url(#mask-6)" points="45 119 45 87 39.1630072 87 39.1630072 110.181707 24.4470794 87 17 87 17 119 22.8401398 119 22.8401398 96.2280348 37.3166144 119"></polygon>
                <path d="M54,117.259082 L55.6069052,112.155826 C57.7288689,113.142717 59.9100823,113.663321 62.951931,113.663321 C66.5069092,113.663321 68.4599425,112.446072 68.4599425,110.127726 C68.4599425,107.226104 66.3377032,106.355924 62.1472383,104.615006 C58.5338373,103.16712 54.2306602,100.959915 54.2306602,95.1082028 C54.2306602,89.0748785 58.7055234,86 65.3613244,86 C68.9774812,86 72.2477855,86.9272824 73.7954411,87.6810301 L72.5349396,92.6107519 C70.6408803,91.626646 68.0011023,91.0450402 65.591709,91.0450402 C62.2062124,91.0450402 60.427621,92.3207847 60.427621,94.3516696 C60.427621,96.9627676 63.0084249,98.0042542 66.048069,99.2217824 C69.5487579,100.615352 75,102.586628 75,109.487626 C75,115.694485 70.5819062,119 63.0084249,119 C58.4745876,119 55.9502775,118.18915 54,117.259082" id="Fill-18" fill="#908477" mask="url(#mask-6)"></path>
                <path d="M82,86 L88.515506,86 L88.515506,105.975822 C88.515506,111.279914 90.408517,113.8145 95.7392563,113.8145 C100.887461,113.8145 102.902446,111.279914 102.902446,105.975822 L102.902446,86 L109,86 L109,106.683978 C109,115.936137 103.613818,119 95.7392563,119 C87.3915841,119 82,115.817545 82,106.683978 L82,86 Z" id="Fill-19" fill="#908477" mask="url(#mask-6)"></path>
                <path d="M128.403537,114.072254 L124.430486,114.072254 L124.430486,91.9249617 L128.696049,91.9249617 C137.11292,91.9249617 139.33455,96.0446888 139.33455,103 C139.33455,110.128498 137.11292,114.072254 128.403537,114.072254 M129.33834,87 L118,87 L118,119 L129.105902,119 C141.498912,119 146,111.581373 146,103 C146,94.0714186 141.263948,87 129.33834,87" id="Fill-20" fill="#908477" mask="url(#mask-6)"></path>
                <polygon id="Fill-21" fill="#A5D6D8" mask="url(#mask-6)" points="182 0 182 38 173 28.5860103"></polygon>
                <polygon id="Fill-22" fill="#A5D6D8" mask="url(#mask-6)" points="171.601363 29 181 38 143 38"></polygon>
                <polygon id="Fill-23" fill="#0098A0" mask="url(#mask-6)" points="143 39 181 39 171.601639 48"></polygon>
                <polygon id="Fill-24" fill="#A5D6D8" mask="url(#mask-6)" points="173 49.3985716 182 40 182 78"></polygon>
                <polygon id="Fill-25" fill="#0098A0" mask="url(#mask-6)" points="183 78 183 40 192 49.3985716"></polygon>
                <polygon id="Fill-26" fill="#0098A0" mask="url(#mask-6)" points="192.41144 48 183 39 221 39"></polygon>
                <polygon id="Fill-27" fill="#A5D6D8" mask="url(#mask-6)" points="221 38 183 38 192.411509 29"></polygon>
                <polygon id="Fill-28" fill="#0098A0" mask="url(#mask-6)" points="192 28.5860103 183 38 183 0"></polygon>
            </g>
        </g>
    </g>
</svg>